<svg width="330" height="158" version="1.1" xmlns="http://www.w3.org/2000/svg" desc="Created with imagetracer.js version 1.2.6" ><path fill="rgb(223,187,84)" stroke="rgb(223,187,84)" stroke-width="1" opacity="1" d="M 304.5 3 Q 309 2 310 4.5 L 321 32.5 L 327 59 L 274.5 65 L 265 68.5 L 277 98 L 248.5 105 L 246 107.5 L 247 111.5 L 246 111.5 L 242 105.5 L 244 105 L 244.5 107 L 248.5 104 L 275 97 L 264 68.5 L 266.5 66 L 273.5 64 L 320.5 59 L 326 56.5 L 317 24.5 L 307.5 4 L 281.5 14 L 254.5 28 L 255.5 26 L 304.5 3 Z " /><path fill="rgb(223,187,84)" stroke="rgb(223,187,84)" stroke-width="1" opacity="1" d="M 252.5 28 L 251.5 30 L 226 43 L 227 47.5 L 246 77.5 L 248 84.5 L 226 95 L 227 99.5 L 233.5 110 L 234.5 107 L 239.5 111 L 240.5 105 L 241 113.5 L 235 109.5 L 236 115.5 L 234 114.5 L 224 95.5 L 231.5 91 L 247 85 L 246 79.5 L 224 43 L 252.5 28 Z " /><path fill="rgb(0,0,0)" stroke="rgb(0,0,0)" stroke-width="1" opacity="0" d="M 0 0 L 306 0.5 L 285.5 8 L 231.5 36 L 220 43.5 L 244 82.5 L 221 93 L 221 95.5 L 234 122.5 L 220 131.5 L 222 137.5 L 236 157.5 L 0 158 L 0 0 Z M 191 15 L 185 31 L 186 32 L 196 32 L 208 16 L 191 15 Z M 119 21 L 119 90 L 120 90 L 132 90 L 132 78 L 141 69 L 153 90 L 169 90 L 149 61 L 168 41 L 152 40 L 138 56 L 132 61 L 132 22 L 132 21 L 119 21 Z M 31 39 L 23 43 L 19 46 L 19 40 L 6 40 L 6 107 L 7 107 L 19 107 L 20 84 Q 23 89 31 91 Q 43 93 49 87 Q 56 82 58 71 L 58 60 L 53 48 L 44 40 Q 39 38 31 39 Z M 83 39 Q 74 40 70 45 Q 63 50 61 60 L 61 71 L 63 77 L 68 84 L 83 91 L 97 90 L 107 84 L 114 71 L 114 60 L 108 48 Q 101 38 83 39 Z M 185 39 L 176 43 Q 167 48 165 60 Q 164 74 170 82 Q 175 89 187 91 L 201 91 L 210 89 L 211 88 L 211 77 L 199 81 Q 190 82 185 79 Q 180 76 178 70 L 180 68 L 214 68 L 214 58 L 208 45 L 200 40 L 185 39 Z M 112 96 L 112 140 L 116 140 L 116 118 L 124 111 L 131 111 L 135 117 L 135 140 L 139 140 L 139 116 L 137 112 L 131 107 Q 122 106 119 110 L 117 113 L 116 113 L 116 97 L 112 96 Z M 93 107 L 90 108 Q 83 110 85 120 L 90 124 L 102 128 L 103 135 L 101 137 L 97 138 Q 89 138 86 134 Q 82 133 84 138 L 92 141 Q 99 143 103 140 L 107 135 L 107 129 L 105 125 L 93 121 Q 88 120 89 114 L 95 110 Q 101 110 106 113 L 106 110 Q 102 105 93 107 Z M 157 107 L 151 110 Q 146 114 144 121 Q 143 130 147 135 L 157 141 Q 165 142 170 139 Q 175 136 177 129 Q 179 118 174 114 Q 170 106 157 107 Z M 195 107 L 189 110 L 186 112 Q 188 106 182 108 L 182 151 L 186 151 L 187 136 L 195 141 Q 203 142 207 139 Q 213 136 214 128 Q 215 118 211 114 L 203 107 L 195 107 Z " /><path fill="rgb(0,0,0)" stroke="rgb(0,0,0)" stroke-width="1" opacity="0" d="M 310.5 0 L 330 0 L 330 55.5 L 329 55.5 L 325 35.5 L 319 17.5 L 310.5 0 Z " /><path fill="rgb(0,0,0)" stroke="rgb(0,0,0)" stroke-width="1" opacity="0" d="M 189.5 48 Q 197.6 47.9 200 53.5 L 202 60 L 178 59.5 L 183.5 50 L 189.5 48 Z " /><path fill="rgb(0,0,0)" stroke="rgb(0,0,0)" stroke-width="1" opacity="0" d="M 28.5 50 L 34.5 50 L 43 56.5 Q 46 60.5 45 68.5 Q 43.5 75 38.5 78 Q 35.2 80.7 28.5 80 L 19 72.5 L 19 57.5 L 24.5 52 L 28.5 50 Z " /><path fill="rgb(0,0,0)" stroke="rgb(0,0,0)" stroke-width="1" opacity="0" d="M 84.5 50 Q 96 49.1 99 56.5 Q 102 60.5 101 68.5 Q 99.2 75.7 93.5 79 L 84.5 80 Q 78.4 78.6 76 73.5 Q 73 69.5 74 61.5 Q 75.8 54.3 81.5 51 L 84.5 50 Z " /><path fill="rgb(0,0,0)" stroke="rgb(0,0,0)" stroke-width="1" opacity="0" d="M 329.5 60 L 330 158 L 237.5 158 Q 236.4 157.9 237 152.5 L 235 145.5 L 235 139.5 L 258 127.5 L 250 108.5 L 251.5 107 L 278.5 100 L 280 98.5 L 269 69 L 291.5 65 L 327.5 62 L 329.5 60 Z " /><path fill="rgb(0,0,0)" stroke="rgb(0,0,0)" stroke-width="1" opacity="0" d="M 159.5 110 Q 167.9 110.1 171 115.5 Q 174 119.5 173 127.5 Q 171.8 133.3 167.5 136 L 159.5 138 Q 153 136.5 150 131.5 Q 147.3 128.2 148 121.5 Q 149.5 115 154.5 112 L 159.5 110 Z " /><path fill="rgb(0,0,0)" stroke="rgb(0,0,0)" stroke-width="1" opacity="0" d="M 196.5 110 Q 204 110 207 114.5 L 210 121.5 L 210 126.5 L 205.5 135 Q 202.5 138 196.5 138 Q 189.9 137.1 187 132.5 L 186 130.5 L 186 117.5 L 189.5 113 L 196.5 110 Z " /><path fill="rgb(13,12,10)" stroke="rgb(13,12,10)" stroke-width="1" opacity="0.8588235294117647" d="M 306.5 0 Q 311.3 -0.8 312 2.5 Q 325.1 26.9 330 59.5 L 327.5 62 L 291.5 65 L 269 69 L 280 98.5 L 278.5 100 L 254.5 106 L 250 108.5 L 258 127.5 L 235 139.5 L 237 157.5 L 234 155.5 L 220 132.5 L 222.5 129 L 234 122.5 L 221 95.5 L 221 93 L 244 82.5 L 220 43.5 L 222.5 41 L 267.5 17 Q 285.4 6.9 306.5 0 Z M 306 2 Q 262 20 223 44 L 246 81 L 246 85 L 239 87 L 224 94 L 224 97 L 234 116 L 237 116 L 235 111 L 237 111 Q 239 110 238 113 L 242 114 L 243 107 L 246 112 Q 245 114 248 113 L 247 106 L 278 98 L 266 69 L 268 67 L 278 65 L 280 66 L 286 64 L 295 64 L 302 62 L 326 60 L 327 59 L 326 50 L 326 48 L 324 45 L 324 41 L 315 17 L 315 14 L 310 4 Q 309 1 306 2 Z " /><path fill="rgb(30,29,26)" stroke="rgb(30,29,26)" stroke-width="1" opacity="0.9921568627450981" d="M 305.5 2 Q 309.3 1.3 310 3.5 L 308.5 3 Q 304.5 3.7 305.5 2 Z " /><path fill="rgb(30,29,26)" stroke="rgb(30,29,26)" stroke-width="1" opacity="0.9921568627450981" d="M 286.5 10 L 288 10.5 L 282.5 13 L 282.5 12 L 286.5 10 Z " /><path fill="rgb(30,29,26)" stroke="rgb(30,29,26)" stroke-width="1" opacity="0.9921568627450981" d="M 313.5 12 L 315 15.5 L 314 15.5 L 313.5 12 Z " /><path fill="rgb(30,29,26)" stroke="rgb(30,29,26)" stroke-width="1" opacity="0.9921568627450981" d="M 191 15 L 208 15.5 L 195.5 32 L 185.5 32 L 185 30.5 L 191 15 Z " /><path fill="rgb(30,29,26)" stroke="rgb(30,29,26)" stroke-width="1" opacity="0.9921568627450981" d="M 119 21 L 131.5 21 L 132 21.5 L 132 60.5 L 138 55.5 L 151.5 40 L 168 40.5 L 149 60.5 L 169 89.5 L 152.5 90 L 140.5 69 L 132 77.5 L 132 90 L 119.5 90 L 119 89.5 L 119 21 Z " /><path fill="rgb(30,29,26)" stroke="rgb(30,29,26)" stroke-width="1" opacity="0.9921568627450981" d="M 254.5 26 L 253.5 28 L 251.5 29 L 252.5 27 L 254.5 26 Z " /><path fill="rgb(30,29,26)" stroke="rgb(30,29,26)" stroke-width="1" opacity="0.9921568627450981" d="M 241.5 33 L 240.5 35 L 238.5 36 L 239.5 34 L 241.5 33 Z " /><path fill="rgb(30,29,26)" stroke="rgb(30,29,26)" stroke-width="1" opacity="0.9921568627450981" d="M 30.5 39 Q 38.8 37.8 43.5 40 L 53 47.5 L 58 59.5 L 58 70.5 Q 56 81.5 48.5 87 Q 43.2 92.7 30.5 91 Q 23.5 89 19.5 84 L 19 107 L 6.5 107 L 6 106.5 L 6 40 L 19 40 L 19 45.5 L 22.5 43 L 30.5 39 Z M 29 50 L 25 52 L 19 58 L 19 73 L 29 80 Q 35 81 39 78 Q 43 75 45 69 Q 46 61 43 57 L 35 50 L 29 50 Z " /><path fill="rgb(30,29,26)" stroke="rgb(30,29,26)" stroke-width="1" opacity="0.9921568627450981" d="M 82.5 39 Q 100.8 37.7 108 47.5 L 114 59.5 L 114 70.5 L 107 84 L 96.5 90 L 82.5 91 L 68 84 L 63 76.5 L 61 70.5 L 61 59.5 Q 63.1 50.1 69.5 45 Q 74.3 40.3 82.5 39 Z M 85 50 L 82 51 Q 76 54 74 62 Q 73 70 76 74 Q 78 79 85 80 L 94 79 Q 99 76 101 69 Q 102 61 99 57 Q 96 49 85 50 Z " /><path fill="rgb(30,29,26)" stroke="rgb(30,29,26)" stroke-width="1" opacity="0.9921568627450981" d="M 184.5 39 L 199.5 40 L 208 45 L 214 57.5 L 214 68 L 179.5 68 L 178 69.5 Q 179.5 76 184.5 79 Q 189.5 82 198.5 81 L 210.5 77 L 211 87.5 L 209.5 89 L 200.5 91 L 186.5 91 Q 175.5 89 170 81.5 Q 163.9 74.1 165 59.5 Q 167.4 48.4 175.5 43 L 184.5 39 Z M 190 48 L 184 50 L 178 60 L 202 60 L 200 54 Q 198 48 190 48 Z " /><path fill="rgb(30,29,26)" stroke="rgb(30,29,26)" stroke-width="1" opacity="0.9921568627450981" d="M 228.5 40 L 227.5 42 L 228.5 40 Z " /><path fill="rgb(30,29,26)" stroke="rgb(30,29,26)" stroke-width="1" opacity="0.9921568627450981" d="M 323.5 40 L 324 42.5 L 323 42.5 L 323.5 40 Z " /><path fill="rgb(30,29,26)" stroke="rgb(30,29,26)" stroke-width="1" opacity="0.9921568627450981" d="M 324.5 45 L 326 47.5 L 324 46.5 L 324.5 45 Z " /><path fill="rgb(30,29,26)" stroke="rgb(30,29,26)" stroke-width="1" opacity="0.9921568627450981" d="M 225.5 47 L 226.5 49 L 225.5 47 Z " /><path fill="rgb(30,29,26)" stroke="rgb(30,29,26)" stroke-width="1" opacity="0.9921568627450981" d="M 227.5 50 L 230 53.5 L 228 52.5 L 227.5 50 Z " /><path fill="rgb(30,29,26)" stroke="rgb(30,29,26)" stroke-width="1" opacity="0.9921568627450981" d="M 326.5 53 L 327 55.5 L 326 55.5 L 326.5 53 Z " /><path fill="rgb(30,29,26)" stroke="rgb(30,29,26)" stroke-width="1" opacity="0.9921568627450981" d="M 230.5 55 L 231.5 57 L 230.5 55 Z " /><path fill="rgb(30,29,26)" stroke="rgb(30,29,26)" stroke-width="1" opacity="0.9921568627450981" d="M 322.5 59 L 326 59.5 L 322.5 60 L 322.5 59 Z " /><path fill="rgb(30,29,26)" stroke="rgb(30,29,26)" stroke-width="1" opacity="0.9921568627450981" d="M 233.5 60 L 234.5 62 L 233.5 60 Z " /><path fill="rgb(30,29,26)" stroke="rgb(30,29,26)" stroke-width="1" opacity="0.9921568627450981" d="M 314.5 60 L 319 60.5 L 314.5 61 L 314.5 60 Z " /><path fill="rgb(30,29,26)" stroke="rgb(30,29,26)" stroke-width="1" opacity="0.9921568627450981" d="M 306.5 61 L 310 61.5 L 306.5 62 L 306.5 61 Z " /><path fill="rgb(30,29,26)" stroke="rgb(30,29,26)" stroke-width="1" opacity="0.9921568627450981" d="M 297.5 62 L 301 62.5 L 297.5 63 L 297.5 62 Z " /><path fill="rgb(30,29,26)" stroke="rgb(30,29,26)" stroke-width="1" opacity="0.9921568627450981" d="M 289.5 63 L 295 63.5 L 289.5 64 L 289.5 63 Z " /><path fill="rgb(30,29,26)" stroke="rgb(30,29,26)" stroke-width="1" opacity="0.9921568627450981" d="M 281.5 64 L 285 64.5 L 281.5 65 L 281.5 64 Z " /><path fill="rgb(30,29,26)" stroke="rgb(30,29,26)" stroke-width="1" opacity="0.9921568627450981" d="M 236.5 65 L 237.5 67 L 236.5 65 Z " /><path fill="rgb(30,29,26)" stroke="rgb(30,29,26)" stroke-width="1" opacity="0.9921568627450981" d="M 274.5 65 L 277 65.5 L 274.5 66 L 274.5 65 Z " /><path fill="rgb(30,29,26)" stroke="rgb(30,29,26)" stroke-width="1" opacity="0.9921568627450981" d="M 266.5 67 L 265.5 69 L 266.5 67 Z " /><path fill="rgb(30,29,26)" stroke="rgb(30,29,26)" stroke-width="1" opacity="0.9921568627450981" d="M 239.5 70 L 240.5 72 L 239.5 70 Z " /><path fill="rgb(30,29,26)" stroke="rgb(30,29,26)" stroke-width="1" opacity="0.9921568627450981" d="M 241.5 73 L 244 76.5 L 242 75.5 L 241.5 73 Z " /><path fill="rgb(30,29,26)" stroke="rgb(30,29,26)" stroke-width="1" opacity="0.9921568627450981" d="M 244.5 78 L 245.5 80 L 244.5 78 Z " /><path fill="rgb(30,29,26)" stroke="rgb(30,29,26)" stroke-width="1" opacity="0.9921568627450981" d="M 246.5 81 L 247 84.5 L 246 84.5 L 246.5 81 Z " /><path fill="rgb(30,29,26)" stroke="rgb(30,29,26)" stroke-width="1" opacity="0.9921568627450981" d="M 241.5 86 L 243 86.5 L 237.5 89 L 238.5 87 L 241.5 86 Z " /><path fill="rgb(30,29,26)" stroke="rgb(30,29,26)" stroke-width="1" opacity="0.9921568627450981" d="M 112 96 L 116 96.5 L 116 112.5 L 117 112.5 L 118.5 110 Q 121.7 105.7 130.5 107 L 137 111.5 L 139 115.5 L 139 140 L 135 139.5 L 135 116.5 L 130.5 111 L 123.5 111 L 116 117.5 L 116 139.5 L 112 140 L 112 96 Z " /><path fill="rgb(30,29,26)" stroke="rgb(30,29,26)" stroke-width="1" opacity="0.9921568627450981" d="M 262.5 101 L 265 101.5 L 262.5 102 L 262.5 101 Z " /><path fill="rgb(30,29,26)" stroke="rgb(30,29,26)" stroke-width="1" opacity="0.9921568627450981" d="M 255.5 103 L 258 103.5 L 255.5 104 L 255.5 103 Z " /><path fill="rgb(30,29,26)" stroke="rgb(30,29,26)" stroke-width="1" opacity="0.9921568627450981" d="M 241.5 105 L 243.5 108 L 242 107.5 L 241.5 114 L 241.5 105 Z " /><path fill="rgb(30,29,26)" stroke="rgb(30,29,26)" stroke-width="1" opacity="0.9921568627450981" d="M 92.5 107 Q 102.1 105.4 106 109.5 L 105.5 113 Q 101.5 110 94.5 110 L 89 113.5 Q 88 120 92.5 121 L 105 125 L 107 128.5 L 107 134.5 L 102.5 140 Q 99 142.5 91.5 141 L 84 137.5 Q 82.5 133.1 85.5 134 Q 89.3 137.7 96.5 138 L 100.5 137 L 103 134.5 L 102 128 L 89.5 124 L 85 119.5 Q 83.3 109.8 89.5 108 L 92.5 107 Z " /><path fill="rgb(30,29,26)" stroke="rgb(30,29,26)" stroke-width="1" opacity="0.9921568627450981" d="M 156.5 107 Q 169.8 105.8 174 113.5 Q 178.5 118 177 128.5 Q 175.2 135.7 169.5 139 Q 165.1 142.1 156.5 141 L 147 134.5 Q 142.9 130.1 144 120.5 Q 145.5 113.5 150.5 110 L 156.5 107 Z M 160 110 L 155 112 Q 150 115 148 122 Q 147 128 150 132 Q 153 136 160 138 L 168 136 Q 172 133 173 128 Q 174 120 171 116 Q 168 110 160 110 Z " /><path fill="rgb(30,29,26)" stroke="rgb(30,29,26)" stroke-width="1" opacity="0.9921568627450981" d="M 194.5 107 L 202.5 107 L 211 113.5 Q 215.1 117.9 214 127.5 Q 212.6 135.6 206.5 139 Q 202.8 142.3 194.5 141 L 186.5 136 L 186 151 L 182 150.5 L 182 108 Q 187.6 105.8 186 111.5 L 188.5 110 L 194.5 107 Z M 197 110 L 190 113 L 186 118 L 186 131 L 187 133 Q 190 137 197 138 Q 203 138 206 135 L 210 127 L 210 122 L 207 115 Q 204 110 197 110 Z " /><path fill="rgb(30,29,26)" stroke="rgb(30,29,26)" stroke-width="1" opacity="0.9921568627450981" d="M 234.5 108 Q 238.7 109.7 236 111.5 L 235.5 113 L 235 111.5 L 236 110.5 L 234.5 108 Z " /><path fill="rgb(30,29,26)" stroke="rgb(30,29,26)" stroke-width="1" opacity="0.9921568627450981" d="M 244.5 109 L 245.5 111 L 244.5 109 Z " /><path fill="rgb(30,29,26)" stroke="rgb(30,29,26)" stroke-width="1" opacity="0.9921568627450981" d="M 247.5 109 L 248 113 L 246 112.5 L 247.5 109 Z " /><path fill="rgb(30,29,26)" stroke="rgb(30,29,26)" stroke-width="1" opacity="0.9921568627450981" d="M 231.5 110 L 234 113.5 L 232 112.5 L 231.5 110 Z " /><path fill="rgb(251,201,50)" stroke="rgb(251,201,50)" stroke-width="1" opacity="1" d="M 305.5 4 L 309 5.5 L 317 24.5 L 326 56.5 L 320.5 59 L 273.5 64 L 266.5 66 L 264 68.5 L 275 97 L 248.5 104 L 244.5 107 L 244 105 Q 237.6 102.7 240 110.5 L 237.5 109 L 234.5 107 L 233.5 110 L 227 99.5 L 226 95 L 248 84.5 L 246 77.5 L 227 47.5 L 226 43 L 281.5 14 L 286.5 13 L 290.5 10 L 305.5 4 Z " /></svg>